<?xml version="1.0" encoding="UTF-8"?>
<svg id="Layer_2" data-name="Layer 2" xmlns="http://www.w3.org/2000/svg" viewBox="0 0 1037.18 1333.89">
  <defs>
    <style>
      .cls-1 {
        fill: #f7b237;
      }

      .cls-2 {
        fill: #fff;
      }

      .cls-3 {
        fill: #942e3a;
      }

      .cls-4 {
        fill: #603813;
      }
    </style>
  </defs>
  <g id="_ëÎÓÈ_1" data-name="ëÎÓÈ 1">
    <g>
      <path class="cls-4" d="m0,518.59C0,241.32,217.6,14.88,491.34.7c306.95-15.89,561.95,239.94,545.05,546.84-5.83,105.83-43.39,203.19-103.32,282.75h.01l-350.95,471.67c-31.67,42.56-95.41,42.56-127.08,0L104.1,830.3h.01C38.76,743.53,0,635.59,0,518.59Z"/>
      <circle class="cls-2" cx="512.75" cy="518.59" r="311.7"/>
      <g id="_9_3_4" data-name="9 3/4">
        <circle id="Round" class="cls-3" cx="519.35" cy="504.89" r="401.06"/>
        <g id="Rounds">
          <circle id="Round-2" data-name="Round" class="cls-1" cx="868.46" cy="504.89" r="22.2"/>
          <circle id="Round-3" data-name="Round" class="cls-1" cx="170.23" cy="504.89" r="22.2"/>
        </g>
        <g id="Round-4" data-name="Round">
          <circle id="Round-5" data-name="Round" class="cls-2" cx="519.35" cy="504.89" r="272.98"/>
          <path id="Outline" d="m519.35,787.93c-38.21,0-75.27-7.48-110.18-22.25-16.77-7.09-32.95-15.88-48.08-26.1-14.99-10.12-29.08-21.75-41.88-34.56-12.81-12.81-24.43-26.9-34.56-41.88-10.22-15.13-19-31.31-26.1-48.08-14.76-34.9-22.25-71.97-22.25-110.18s7.48-75.27,22.25-110.18c7.09-16.77,15.88-32.95,26.1-48.08,10.12-14.99,21.75-29.08,34.56-41.88,12.81-12.81,26.9-24.43,41.88-34.56,15.13-10.22,31.31-19,48.08-26.1,34.9-14.76,71.97-22.25,110.18-22.25s75.27,7.48,110.18,22.25c16.77,7.09,32.95,15.88,48.08,26.1,14.99,10.12,29.08,21.75,41.88,34.56,12.81,12.81,24.43,26.9,34.56,41.88,10.22,15.13,19,31.31,26.1,48.08,14.76,34.9,22.25,71.97,22.25,110.18s-7.48,75.27-22.25,110.18c-7.09,16.77-15.88,32.95-26.1,48.08-10.12,14.99-21.75,29.08-34.56,41.88-12.81,12.81-26.9,24.43-41.88,34.56-15.13,10.22-31.31,19-48.08,26.1-34.9,14.76-71.97,22.25-110.18,22.25Zm0-545.95c-144.97,0-262.91,117.94-262.91,262.91s117.94,262.91,262.91,262.91,262.91-117.94,262.91-262.91-117.94-262.91-262.91-262.91Z"/>
        </g>
        <g id="_9_3_4-2" data-name="9 3/4">
          <g id="_3_4" data-name="3/4">
            <path id="Tree" d="m678.09,429.21c-2.07-4.81-4.85-8.99-8.36-12.55-3.5-3.55-6.41-6.73-13.96-10.24-8.32-3.87-14.68-4.79-24.25-4.99v-.73c5.88,0,12.03-1.62,16.68-3.62,7.12-3.06,12-6.05,15.17-9.21,3.95-3.94,6.34-7.17,8.05-15.34,2.16-10.35-.03-20.84-5.46-28.65-4.8-6.91-9.85-10.34-15.83-13.38-5.56-2.82-10.47-4.11-16.79-4.77-6.27-.65-12.8-.68-20.92,1.11-6.92,1.53-12.5,3.95-17.5,7.49-4.91,3.48-8.73,7.8-11.66,13.19-.04.08-.09.16-.13.24,0,.02-.02.03-.03.05h0c-1.13,2.13-1.78,4.56-1.78,7.14,0,8.4,6.81,15.22,15.22,15.22s15.22-6.81,15.22-15.22c0-7.79-5.85-14.21-13.4-15.11,4.96-4.48,11.49-7.49,18.18-7.49,4.84,0,8.97.33,13.01,2.25,6.12,2.9,10.08,8.46,12.38,14.66,1.39,3.73,2.05,8.59,2.05,14.22,0,12.45-2.32,23.55-10.57,29.51-7.07,5.1-16.1,5.29-23.94,5.29v6.11c7.15,0,13.78-.08,18.99,1.55,5.85,1.82,9.89,3.98,13.4,7.48,3.8,3.79,6.11,8.88,7.42,14.04,1.2,4.74,2.38,12.44,2.38,20.01,0,6.71-1.13,13.67-3.79,19.86-3.22,7.5-9.42,13.94-17.45,16.13-4.28,1.17-8.75,1.41-13.17,1.25-3.15-.12-6.62-.7-9.94-1.7,4.7-2.59,7.88-7.59,7.88-13.33,0-8.4-6.81-15.22-15.22-15.22s-15.22,6.81-15.22,15.22c0,2.08.42,4.07,1.18,5.87h0s.01.02.02.03c1.07,2.54,2.81,4.72,5,6.34,3.79,3.04,8.73,4.89,13.2,6.3,5.76,1.81,12.65,2.72,20.7,2.72,9.15,0,17.23-1.22,24.24-3.66,7.01-2.45,12.89-5.74,17.65-9.88,4.76-4.15,8.35-8.98,10.79-14.49,2.43-5.52,3.65-11.38,3.65-17.6s-1.03-11.29-3.1-16.1Z"/>
            <path id="Four" d="m686.44,647.03v-14.88h-19.94v-113.32h-6.09l-84.33,122.88v5.32h72.15v27.94h-13.45v9.48h45.18v-9.48h-13.45v-27.94h19.94Zm-38.21-14.88h-49.12v-2.13l46.99-68.13h2.13v70.26Z"/>
          </g>
          <path id="Nine" d="m540.02,456.53c-.45-8.23-1.49-17.61-3.14-28.16-1.65-10.54-3.89-19.89-6.73-28.04-2.84-8.15-6.88-16.34-12.12-24.57-5.24-8.23-11.4-15.03-18.51-20.42-7.1-5.38-16.01-9.8-26.7-13.24-10.7-3.43-22.71-5.16-36.02-5.16-15.11,0-28.8,2.25-41.07,6.73-12.27,4.49-22.29,10.28-30.07,17.39-7.78,7.1-14.33,15.33-19.64,24.68-5.31,9.35-9.05,18.59-11.22,27.71-2.17,9.13-3.25,18.25-3.25,27.37,0,14.06,1.68,27.08,5.05,39.04,3.37,11.97,8.57,22.78,15.6,32.43,7.03,9.65,16.64,17.24,28.83,22.77,12.19,5.54,26.36,8.3,42.53,8.3,13.16,0,24.86-2.69,35.11-8.08,10.25-5.39,18.13-12.64,23.97-21.77,0,13.3.08,23.44,0,30.39-.08,6.96-.34,16-.85,27.14-.67,14.25-2.45,28.57-5.44,42.52-1.67,7.77-3.89,15.53-7.76,22.51-2.52,4.56-6.03,9.18-10.9,13.4-4.48,3.88-9.71,6.64-15.56,8.35-5.84,1.72-10.22,2.58-19.77,2.58-7.49,0-15.93-1.28-23.19-3.65,9.64-5.22,16.19-15.42,16.19-27.15,0-17.04-13.82-30.86-30.86-30.86s-30.86,13.82-30.86,30.86c0,4.23.85,8.25,2.39,11.92h0s0,0,0,0c1.26,3.01,2.98,5.77,5.08,8.2,2.07,2.54,4.48,4.86,7.24,7.13,5.47,4.49,13.25,8.27,23.36,11.34,10.1,3.07,21.67,4.61,34.69,4.61,38.92,0,67.7-15.71,86.34-47.12,18.64-31.41,27.96-78.6,27.96-141.58,0-10.17-.23-19.37-.68-27.6Zm-66.1,47.81c-6.43,11.29-19.29,20.28-32.19,20.28s-25.76-9-32.19-20.28c-8.71-15.28-8.6-39.9-8.71-59.56.11-19.67,0-44.28,8.71-59.56,6.43-11.29,19.29-20.28,32.19-20.28s25.76,8.99,32.19,20.28c8.71,15.28,8.6,39.89,8.71,59.56-.11,19.67,0,44.28-8.71,59.56Z"/>
          <rect id="Line" x="579.01" y="501.5" width="104.52" height="6.78"/>
        </g>
        <g id="platform">
          <path id="P" class="cls-1" d="m348.67,241.93c1.29-.86,2.09-1.7,2.4-2.53.31-.83.26-1.77-.14-2.84-.4-1.07-1.04-2.35-1.91-3.85l-14.65-25.32c-.52-.89-1-1.77-1.44-2.62-.44-.85-.82-1.6-1.13-2.23-.67.44-1.39.92-2.18,1.43-.79.51-1.49.97-2.12,1.39l-1.94-3.35c2.37-1.43,4.79-2.86,7.25-4.32,2.46-1.45,4.97-2.92,7.53-4.4,3.81-2.21,7.31-3.62,10.5-4.25,3.19-.62,6.03-.43,8.54.58,2.51,1.01,4.59,2.91,6.25,5.68.96,1.56,1.62,3.36,1.98,5.39.37,2.04.24,4.2-.39,6.48-.63,2.29-1.93,4.6-3.91,6.93-1.98,2.34-4.85,4.6-8.63,6.78-.38.28-.83.56-1.33.85-.51.29-1.04.57-1.59.84l4.44,7.67c.63,1.1,1.19,2.09,1.68,2.97.48.89.84,1.61,1.06,2.19.54-.37,1.13-.76,1.76-1.18.63-.42,1.25-.82,1.86-1.2.62-.38,1.18-.75,1.68-1.1l1.97,3.41-16.01,9.26-1.55-2.68Zm1.24-22.57c.74-.32,1.36-.61,1.88-.89.52-.27,1.12-.61,1.81-1.01,2.27-1.31,4.03-2.9,5.29-4.77,1.25-1.86,1.89-3.89,1.93-6.07.03-2.19-.59-4.4-1.89-6.63-1.13-1.95-2.37-3.41-3.72-4.39-1.35-.98-2.76-1.54-4.23-1.69-1.47-.15-2.97,0-4.49.45-1.53.45-3.04,1.11-4.54,1.98-1.22.7-1.97,1.46-2.26,2.28-.29.82-.24,1.74.14,2.76.38,1.03.99,2.27,1.83,3.73l8.24,14.24Z"/>
          <path id="L" class="cls-1" d="m386.34,224.21l-1.18-2.86c1.39-.68,2.3-1.41,2.71-2.19.41-.78.49-1.73.23-2.84-.26-1.11-.72-2.47-1.38-4.07l-11.19-27.03c-.39-.95-.75-1.88-1.08-2.79-.32-.9-.6-1.69-.83-2.36-.72.35-1.5.72-2.35,1.13-.85.4-1.61.77-2.28,1.1l-1.48-3.57,15.98-6.62,1.18,2.86c-1.37.62-2.26,1.33-2.69,2.14-.43.81-.51,1.76-.27,2.85.25,1.09.71,2.46,1.39,4.1l11.14,26.9c.48,1.17.9,2.2,1.25,3.1.35.9.59,1.65.74,2.24l10.93-4.68c2.67-1.15,4.36-2.88,5.08-5.19.72-2.3.31-5.32-1.23-9.04l2.92-1.21,5.47,14.32-33.07,13.69Z"/>
          <path id="S" class="cls-1" d="m420.33,209.92l-.79-3.06c1.36-.35,2.31-.98,2.85-1.9.54-.91.9-2.06,1.07-3.44.18-1.38.36-2.91.55-4.61l4.03-41.2,2.72-.7,24.77,34.34c.59.77,1.3,1.83,2.13,3.19.83,1.36,1.36,2.57,1.59,3.62.75-.29,1.49-.54,2.24-.76.74-.22,1.45-.43,2.12-.66l.97,3.74-16.54,4.27-.77-3c1.58-.45,2.54-1.08,2.89-1.87.35-.79.35-1.65-.01-2.58-.36-.92-.84-1.82-1.45-2.67l-3.47-4.99-16.57,4.72-.44,6.43c-.04.98-.11,1.92-.22,2.82-.11.9-.22,1.78-.34,2.63.79-.3,1.65-.58,2.58-.85.92-.26,1.74-.51,2.46-.74l.98,3.81-13.34,3.45Zm8.6-21.54l14.3-3.69-7.26-10.4c-.93-1.36-1.84-2.71-2.72-4.06-.88-1.35-1.7-2.65-2.46-3.9l-.07.02c-.07,1.23-.16,2.58-.26,4.06-.1,1.48-.24,3.09-.42,4.83l-1.11,13.14Z"/>
          <path id="T" class="cls-1" d="m496.39,160.77c-.36-2.65-.93-4.82-1.7-6.53-.77-1.7-1.85-2.92-3.23-3.65-1.39-.73-3.19-.94-5.42-.63l-5.03.6,4.24,36.32c.15,1.26.27,2.39.37,3.39.1,1,.13,1.81.11,2.43.87-.2,1.83-.37,2.88-.52,1.04-.15,1.98-.29,2.82-.44l.46,3.84-17.74,2.11-.36-3.07c1.53-.28,2.58-.73,3.17-1.37.58-.64.9-1.53.95-2.7.05-1.16-.02-2.58-.22-4.26l-4.13-34.77-5.86.77c-2.84.34-4.8,1.54-5.87,3.6-1.08,2.06-1.38,5.1-.9,9.1l-3.28.39-1.37-15.13,41.2-4.89,2.21,15.03-3.28.39Z"/>
          <path id="F" class="cls-1" d="m507.32,194.28l.05-3.09c1.55-.07,2.67-.38,3.36-.93.69-.55,1.14-1.39,1.34-2.51.2-1.12.32-2.55.35-4.28l.47-29.25c.02-1.03.06-2.03.12-2.99.06-.96.12-1.79.18-2.49-.8.03-1.67.07-2.6.1-.94.03-1.78.07-2.53.1l.06-3.87,33.47.54.22,12.73-3.09-.05c.04-2.67-.37-4.72-1.24-6.14-.87-1.42-2-2.38-3.4-2.87-1.4-.49-2.92-.73-4.56-.71l-4.22.07c-1.5-.02-2.6.26-3.28.86-.69.6-1.14,1.46-1.34,2.58-.21,1.12-.32,2.55-.35,4.28l-.2,12.09,10.62.24-.32-6.12,3.87.06-.25,15.61-3.09-.05c.03-2.06-.24-3.54-.81-4.44-.57-.9-1.44-1.45-2.61-1.66-1.17-.21-2.62-.3-4.36-.28l-3.1.09-.21,13.15c-.02,1.27-.05,2.4-.09,3.41-.04,1.01-.11,1.82-.22,2.42.7-.03,1.47-.06,2.29-.07.82,0,1.63-.03,2.43-.07.8-.03,1.52-.05,2.18-.04l-.06,3.87-19.05-.31Z"/>
          <path id="O" class="cls-1" d="m568.12,199.51c-4.4-.7-8.04-2.04-10.93-4.02-2.89-1.98-5.11-4.36-6.65-7.15-1.55-2.79-2.55-5.76-2.99-8.92-.45-3.16-.43-6.24.05-9.25.47-2.92,1.43-5.79,2.91-8.61,1.47-2.83,3.41-5.33,5.83-7.51,2.41-2.18,5.26-3.79,8.53-4.83,3.28-1.04,6.95-1.24,11.02-.59,4.26.68,7.8,2.03,10.64,4.05,2.83,2.02,5.04,4.45,6.63,7.29,1.59,2.84,2.64,5.82,3.16,8.94.52,3.12.55,6.14.08,9.06-.46,2.87-1.42,5.72-2.9,8.55-1.47,2.83-3.42,5.34-5.83,7.54-2.42,2.2-5.25,3.83-8.5,4.87-3.25,1.05-6.94,1.24-11.06.58Zm.92-3.56c2.68.43,5.11.2,7.27-.69,2.16-.89,4.04-2.24,5.63-4.05,1.59-1.81,2.89-3.88,3.88-6.22.99-2.33,1.68-4.7,2.06-7.11.47-2.96.58-5.88.33-8.74-.25-2.86-.91-5.51-1.97-7.93-1.06-2.42-2.53-4.44-4.41-6.05-1.88-1.61-4.19-2.63-6.92-3.06-2.69-.43-5.12-.18-7.31.75-2.19.93-4.07,2.3-5.64,4.12-1.57,1.81-2.86,3.89-3.88,6.22-1.01,2.33-1.72,4.72-2.11,7.18-.38,2.41-.47,5.01-.25,7.79.22,2.79.81,5.45,1.79,7.98.97,2.53,2.4,4.68,4.27,6.45,1.88,1.77,4.3,2.89,7.26,3.37Z"/>
          <path id="R" class="cls-1" d="m596.43,203.67l.96-2.94c1.5.39,2.66.42,3.48.1.82-.32,1.49-.99,2.02-2,.53-1.01,1.06-2.34,1.6-3.99l9.07-27.81c.32-.98.65-1.92.99-2.82.34-.9.64-1.68.91-2.33-.77-.2-1.61-.43-2.52-.67-.91-.25-1.72-.46-2.45-.65l1.2-3.68c2.73.84,5.48,1.7,8.26,2.58,2.77.88,5.55,1.8,8.35,2.76,4.19,1.37,7.49,2.97,9.89,4.82,2.41,1.85,3.98,3.92,4.73,6.24.75,2.32.64,4.89-.34,7.73-.54,1.8-1.47,3.45-2.8,4.97-1.33,1.51-3.11,2.67-5.35,3.47-2.23.8-5.03,1.05-8.38.74.72.83,1.28,1.82,1.69,2.99.41,1.17.8,2.46,1.18,3.86l2.03,7.61c.41,1.61.82,3,1.23,4.17.41,1.17.97,2.15,1.7,2.96.72.8,1.71,1.41,2.96,1.82l-.96,2.94-9.29-3.03c-.84-1.36-1.49-2.74-1.94-4.15-.45-1.41-.92-2.97-1.39-4.71l-2.17-8.99c-.29-1.08-.59-2.24-.9-3.47-.31-1.24-.73-2.33-1.26-3.29-.71-.23-1.42-.46-2.11-.69-.69-.23-1.39-.45-2.11-.69l-3.6,11.03c-.39,1.2-.76,2.28-1.09,3.23-.34.95-.64,1.7-.92,2.25.55.13,1.13.28,1.74.46.61.17,1.22.34,1.84.49.62.15,1.15.3,1.59.45l-1.2,3.68-16.65-5.43Zm23.23-18.16c2.46.76,4.69,1.05,6.67.88,1.98-.17,3.69-.87,5.12-2.1,1.44-1.23,2.56-3.07,3.35-5.53.6-1.83.83-3.45.7-4.87-.13-1.42-.56-2.68-1.28-3.78-.73-1.1-1.71-2.04-2.96-2.82-1.25-.78-2.66-1.42-4.22-1.93-1.43-.47-2.55-.54-3.37-.21-.82.32-1.49.97-2,1.94-.51.97-1.03,2.25-1.55,3.86l-4.27,13.1c.65.26,1.27.53,1.85.79.58.26,1.23.49,1.96.68Z"/>
          <path id="M" class="cls-1" d="m660.65,229.71c.38-4.79.76-9.58,1.14-14.38.38-4.79.79-9.59,1.24-14.41.12-1.42.28-2.96.47-4.61.19-1.65.43-3.39.71-5.2.28-1.82.59-3.64.93-5.48-.57,1.08-1.13,2.11-1.66,3.1s-1.04,1.94-1.52,2.85c-.73,1.26-1.57,2.74-2.53,4.43-.96,1.69-1.98,3.48-3.05,5.34-1.08,1.87-2.13,3.74-3.16,5.61-1.03,1.87-2.02,3.66-2.99,5.38-.53.99-1.07,1.95-1.62,2.88-.55.93-1.05,1.72-1.51,2.38.79.32,1.61.69,2.47,1.12.86.43,1.63.8,2.31,1.12l-1.82,3.41-12.59-6.73,1.46-2.73c1.18.58,2.19.83,3.03.74.84-.08,1.6-.48,2.27-1.18.67-.71,1.34-1.65,2.03-2.82l15.18-26.33c.53-.89,1.05-1.77,1.58-2.66.53-.89,1-1.67,1.42-2.35-.77-.36-1.57-.74-2.41-1.17-.84-.42-1.58-.78-2.22-1.07l1.79-3.35,10.85,5.8-2.82,29.9c-.1,1.38-.24,2.84-.42,4.36-.18,1.53-.33,3.04-.47,4.53-.14,1.5-.28,2.89-.44,4.19l.12.07c1.12-1,2.36-2.09,3.74-3.26,1.37-1.18,2.58-2.24,3.61-3.17,4.16-3.52,8.36-7.01,12.58-10.5,4.23-3.48,8.48-7.08,12.75-10.81l10.92,5.83-1.46,2.73c-.99-.53-1.92-.8-2.79-.81-.87-.01-1.7.35-2.5,1.1-.8.74-1.61,1.99-2.43,3.73l-12.92,27.46c-.36.87-.76,1.69-1.2,2.47-.44.77-.83,1.42-1.15,1.93.77.36,1.58.75,2.44,1.18.86.43,1.61.79,2.25,1.08l-1.82,3.41-15.01-8.02,1.46-2.73c1.22.6,2.27.84,3.16.73.88-.11,1.69-.6,2.41-1.46.73-.86,1.47-2.1,2.22-3.71l8.65-18.58c.29-.64.64-1.4,1.05-2.27.41-.87.83-1.79,1.27-2.75.44-.96.86-1.89,1.29-2.78-.28.22-.56.46-.85.7-.29.24-.6.52-.92.82l-31.36,26.61-3.16-1.69Z"/>
        </g>
        <g id="hogwarts_express" data-name="hogwarts express">
          <path id="H" class="cls-1" d="m205.24,663.71l2.7-1.5c.83,1.31,1.66,2.12,2.48,2.44.82.32,1.77.29,2.84-.09,1.07-.38,2.37-.99,3.89-1.84l25.57-14.21c.9-.5,1.78-.96,2.65-1.39.86-.43,1.61-.79,2.25-1.09-.43-.67-.89-1.41-1.39-2.21-.5-.8-.95-1.51-1.35-2.14l3.38-1.88,8.4,15.12-2.7,1.5c-.77-1.29-1.58-2.1-2.44-2.43-.85-.33-1.81-.31-2.86.06-1.05.37-2.36.99-3.92,1.85l-10.02,5.57,11.31,20.34,11.62-6.46c.9-.5,1.78-.96,2.65-1.39.86-.43,1.61-.79,2.25-1.09-.43-.67-.89-1.41-1.39-2.21-.5-.8-.95-1.51-1.35-2.14l3.38-1.88,8.4,15.12-2.7,1.5c-.77-1.29-1.58-2.1-2.44-2.43-.85-.33-1.81-.31-2.86.06-1.05.37-2.36.99-3.92,1.85l-25.26,14.04c-1.11.61-2.11,1.16-3,1.63-.89.47-1.63.81-2.21,1.02.47.65.94,1.38,1.42,2.19.48.81.92,1.53,1.32,2.16l-3.38,1.88-8.4-15.12,2.7-1.5c.83,1.31,1.66,2.12,2.48,2.44.82.32,1.77.29,2.84-.09,1.07-.38,2.37-.99,3.89-1.84l10.76-5.98-11.49-20.24-11.86,6.59c-1.11.61-2.11,1.16-3,1.63-.89.47-1.63.81-2.21,1.02.47.65.95,1.39,1.43,2.22.49.83.92,1.54,1.3,2.13l-3.38,1.88-8.4-15.12Z"/>
          <path id="O-2" data-name="O" class="cls-1" d="m249.58,735.16c-2.8-3.47-4.6-6.9-5.42-10.31s-.87-6.66-.15-9.77c.72-3.11,1.97-5.98,3.75-8.62,1.78-2.64,3.86-4.92,6.23-6.83,2.3-1.85,4.94-3.34,7.93-4.45,2.99-1.11,6.1-1.67,9.36-1.67,3.25,0,6.44.71,9.57,2.13,3.13,1.42,5.99,3.73,8.58,6.95,2.71,3.36,4.44,6.73,5.19,10.13.75,3.4.77,6.68.04,9.86-.72,3.17-1.94,6.09-3.64,8.76-1.7,2.67-3.7,4.93-6,6.78-2.26,1.82-4.89,3.29-7.87,4.41-2.99,1.11-6.11,1.68-9.38,1.69-3.27.02-6.46-.68-9.58-2.08-3.12-1.4-5.99-3.73-8.6-6.97Zm3.07-2.02c1.71,2.12,3.66,3.57,5.86,4.35,2.2.79,4.5,1.04,6.89.76,2.4-.28,4.74-.95,7.04-2.02,2.3-1.07,4.4-2.37,6.29-3.9,2.33-1.88,4.37-3.97,6.1-6.27,1.73-2.3,3.01-4.7,3.85-7.21.83-2.51,1.09-4.99.77-7.44-.32-2.45-1.35-4.75-3.08-6.91-1.71-2.12-3.69-3.56-5.94-4.34-2.25-.77-4.57-1.01-6.95-.72-2.38.29-4.73.97-7.04,2.02-2.31,1.05-4.44,2.36-6.37,3.92-1.9,1.53-3.7,3.4-5.4,5.62-1.71,2.22-3.04,4.59-4.01,7.12-.97,2.53-1.35,5.08-1.15,7.65.21,2.57,1.25,5.03,3.14,7.36Z"/>
          <path id="G" class="cls-1" d="m290.82,778.21c-3.59-3.16-6.05-6.71-7.39-10.65-1.34-3.93-1.52-7.95-.53-12.05.99-4.1,3.13-8.01,6.41-11.74,2.17-2.46,4.67-4.54,7.51-6.23,2.83-1.69,5.87-2.83,9.1-3.41,3.23-.58,6.51-.43,9.82.45,3.31.89,6.5,2.68,9.55,5.38,1.16,1.02,2.28,2.2,3.36,3.53,1.08,1.33,2.04,2.74,2.88,4.23.84,1.49,1.49,2.97,1.95,4.44l1.93-2.61,3.27,2.88-10.7,12.13-2.43-2.14c1.68-2.27,2.67-4.57,2.95-6.91.28-2.34-.02-4.58-.92-6.72-.9-2.14-2.3-4.04-4.19-5.71-1.86-1.64-3.92-2.73-6.18-3.25-2.26-.52-4.59-.55-7-.08-2.41.47-4.79,1.41-7.15,2.84-2.35,1.43-4.52,3.27-6.5,5.51-2.85,3.24-4.85,6.58-6,10.04-1.15,3.46-1.37,6.78-.67,9.96.7,3.18,2.37,5.93,5,8.25.84.74,1.84,1.48,2.98,2.2,1.14.73,2.36,1.36,3.66,1.91,1.3.55,2.58.92,3.86,1.1l5.21-5.91c.77-.88,1.55-1.74,2.33-2.59.78-.85,1.49-1.64,2.14-2.38-.59-.46-1.26-.98-1.99-1.57-.74-.59-1.38-1.09-1.94-1.52l2.56-2.9,12.6,11.12-2.05,2.32c-.84-.74-1.69-1.15-2.54-1.21-.85-.06-1.65.09-2.39.47-.74.38-1.43.86-2.08,1.45-.64.59-1.21,1.16-1.71,1.73l-7.26,8.23-1.37-1.21c-.74-.65-1.7-1.3-2.89-1.94-1.19-.64-2.6-1.27-4.23-1.9-1.43-.57-2.96-1.36-4.58-2.35-1.62-.99-3.09-2.06-4.39-3.21Z"/>
          <path id="W" class="cls-1" d="m331.99,809.23l8.24-38.78c.46-2.18.85-3.93,1.17-5.26.32-1.33.66-2.44,1.01-3.32-.67-.34-1.29-.67-1.86-1.01-.57-.33-1.14-.64-1.73-.94l1.96-3.34,15.77,9.25-1.57,2.67c-2.11-1.13-3.67-1.45-4.69-.96-1.02.49-1.89,2.04-2.61,4.66-.81,2.95-1.49,5.73-2.04,8.34-.55,2.61-1.18,5.34-1.87,8.2-.49,1.94-.9,3.78-1.24,5.51-.34,1.73-.8,3.7-1.39,5.91l.06.04c.58-.53,1.26-1.16,2.05-1.9.78-.73,1.6-1.49,2.44-2.28.84-.78,1.61-1.5,2.32-2.15.71-.65,1.24-1.14,1.6-1.47,2.77-2.5,5.5-4.95,8.18-7.35,2.68-2.39,5.11-4.56,7.27-6.49,2.17-1.93,3.89-3.53,5.17-4.79l3.15,1.85c-.47,1.73-.96,3.8-1.47,6.19-.51,2.39-1.04,4.85-1.6,7.38-.56,2.53-1.09,4.96-1.59,7.3-.5,2.34-.96,4.37-1.37,6.09-.45,1.97-.89,3.95-1.33,5.95-.44,2-.96,4.02-1.56,6.06l.12.07c1.08-1,2.22-2.05,3.44-3.16,1.22-1.11,2.45-2.25,3.68-3.43,2.18-1.87,4.05-3.49,5.59-4.87,1.54-1.38,2.86-2.59,3.96-3.63,1.1-1.04,2.1-1.98,2.99-2.81.9-.83,1.79-1.64,2.68-2.42.69-.63,1.46-1.28,2.29-1.96.83-.68,1.69-1.22,2.58-1.62-.79-.41-1.63-.86-2.51-1.35-.88-.49-1.68-.92-2.39-1.28l1.96-3.34,12.74,7.47-1.57,2.67c-1.28-.59-2.45-.89-3.5-.91-1.05-.02-2.2.35-3.46,1.11-1.26.76-2.91,2-4.96,3.73-4.98,4.41-9.9,8.79-14.75,13.12-4.85,4.33-9.75,8.63-14.7,12.9l-3.03-1.78,6.06-29.79c.27-1.47.58-2.91.93-4.3.36-1.39.7-2.75,1.05-4.07-.95.97-1.91,1.91-2.88,2.83-.98.92-1.98,1.84-3.01,2.76l-22.83,20.44-2.97-1.74Z"/>
          <path id="A" class="cls-1" d="m377.8,834.01l1.12-2.96c1.32.5,2.46.52,3.42.09.97-.44,1.92-1.17,2.85-2.19.94-1.02,1.97-2.18,3.1-3.45l27-31.38,2.63.99.51,42.34c.04.97,0,2.24-.09,3.84-.1,1.59-.36,2.88-.78,3.88.78.19,1.53.42,2.27.67.73.25,1.44.48,2.11.68l-1.36,3.62-15.99-6.02,1.09-2.9c1.55.53,2.7.58,3.44.13.74-.45,1.23-1.15,1.47-2.11.24-.96.35-1.97.35-3.02l.03-6.07-16.27-5.68-4.06,5.01c-.59.78-1.19,1.5-1.8,2.18-.6.67-1.2,1.33-1.79,1.96.82.21,1.69.47,2.6.79.91.32,1.72.59,2.44.81l-1.39,3.69-12.9-4.86Zm19.42-12.67l13.82,5.2.04-12.68c.02-1.65.05-3.27.11-4.88.05-1.61.13-3.14.23-4.61l-.07-.02c-.76.96-1.61,2.02-2.55,3.17-.93,1.15-1.98,2.39-3.12,3.71l-8.47,10.11Z"/>
          <path id="R-2" data-name="R" class="cls-1" d="m427.99,852.03l.67-3.02c1.53.24,2.69.16,3.47-.24.78-.4,1.39-1.13,1.82-2.19.42-1.06.82-2.43,1.2-4.13l6.29-28.57c.22-1.01.46-1.97.71-2.9.25-.93.48-1.73.67-2.41-.79-.13-1.65-.27-2.57-.42-.93-.16-1.76-.29-2.5-.41l.83-3.78c2.8.57,5.62,1.16,8.47,1.76,2.84.6,5.7,1.24,8.58,1.93,4.3.95,7.74,2.22,10.32,3.82,2.57,1.6,4.35,3.51,5.32,5.74.97,2.23,1.11,4.81.42,7.73-.36,1.84-1.13,3.58-2.3,5.22-1.18,1.64-2.84,2.96-4.98,3.98-2.14,1.02-4.9,1.54-8.26,1.56.79.75,1.45,1.69,1.97,2.81.52,1.12,1.04,2.37,1.56,3.73l2.77,7.38c.57,1.56,1.11,2.91,1.63,4.03.52,1.12,1.18,2.05,1.98,2.78.8.73,1.84,1.23,3.12,1.52l-.67,3.02-9.55-2.1c-.97-1.27-1.75-2.58-2.34-3.94-.59-1.35-1.2-2.87-1.84-4.55l-3.04-8.73c-.39-1.05-.81-2.17-1.24-3.37-.43-1.2-.96-2.25-1.57-3.15-.73-.16-1.45-.32-2.16-.48-.71-.16-1.43-.32-2.16-.48l-2.5,11.33c-.27,1.24-.53,2.34-.77,3.32-.24.98-.47,1.76-.69,2.33.56.08,1.15.17,1.77.28.62.11,1.25.22,1.88.31.63.09,1.17.19,1.63.29l-.83,3.78-17.1-3.77Zm21.33-20.36c2.53.51,4.77.58,6.72.22,1.95-.36,3.58-1.23,4.89-2.59,1.31-1.37,2.24-3.31,2.8-5.83.41-1.88.49-3.52.22-4.92-.27-1.4-.82-2.62-1.65-3.64-.83-1.02-1.91-1.86-3.23-2.51-1.32-.65-2.78-1.15-4.38-1.51-1.47-.32-2.59-.28-3.37.12-.79.4-1.39,1.11-1.8,2.12-.42,1.01-.8,2.34-1.17,3.99l-2.96,13.46c.68.2,1.32.4,1.92.6.6.2,1.28.37,2.02.48Z"/>
          <path id="T-2" data-name="T" class="cls-1" d="m515.99,830.69c.15-2.67.01-4.91-.42-6.73-.43-1.82-1.25-3.22-2.47-4.2-1.22-.98-2.95-1.54-5.2-1.66l-5.05-.38-2.78,36.46c-.09,1.26-.19,2.4-.29,3.4-.1,1-.22,1.81-.36,2.41.89-.03,1.87-.01,2.92.04,1.05.06,2,.09,2.85.11l-.29,3.86-17.81-1.33.23-3.09c1.55.02,2.67-.22,3.37-.74.7-.51,1.18-1.33,1.45-2.47.27-1.13.47-2.54.6-4.22l2.6-34.92-5.9-.37c-2.85-.21-5,.59-6.45,2.41-1.45,1.82-2.33,4.74-2.63,8.76l-3.3-.25,1.55-15.12,41.37,3.08-.71,15.18-3.3-.25Z"/>
          <path id="S-2" data-name="S" class="cls-1" d="m551.92,829.05c-.37-2.37-1.11-4.49-2.2-6.35-1.09-1.86-2.54-3.31-4.34-4.36-1.8-1.05-3.98-1.47-6.55-1.27-2.62.15-4.66,1-6.12,2.54-1.46,1.54-2.13,3.34-2.01,5.4.11,1.82.71,3.33,1.81,4.51,1.1,1.18,2.56,2.21,4.37,3.09,1.81.88,3.85,1.75,6.1,2.6,1.82.65,3.67,1.38,5.55,2.21,1.88.83,3.6,1.8,5.17,2.9,1.57,1.11,2.84,2.46,3.83,4.07.99,1.61,1.54,3.54,1.68,5.78.15,2.62-.39,5-1.63,7.14-1.24,2.14-3.07,3.87-5.51,5.18-2.44,1.32-5.43,2.08-8.99,2.29-2.01.12-4.15-.06-6.41-.54-2.26-.48-4.33-1.23-6.22-2.24l.52,2.93-4.28.25-1.18-15.43,3.37-.2c.61,4.05,2.25,7.04,4.93,8.97,2.67,1.93,5.79,2.8,9.34,2.59,1.78-.1,3.37-.52,4.79-1.27,1.41-.74,2.5-1.74,3.28-3.01.77-1.27,1.11-2.72,1.01-4.36-.11-1.92-.78-3.5-2-4.74-1.22-1.24-2.74-2.28-4.55-3.12-1.81-.83-3.7-1.62-5.67-2.35-1.97-.73-3.88-1.51-5.74-2.34-1.86-.83-3.55-1.81-5.07-2.94-1.52-1.13-2.75-2.5-3.69-4.12-.94-1.61-1.47-3.54-1.61-5.79-.08-1.31.08-2.7.46-4.18.38-1.48,1.1-2.9,2.15-4.28,1.05-1.38,2.52-2.53,4.41-3.46,1.89-.93,4.32-1.48,7.26-1.66,1.78-.1,3.79.04,6.05.42,2.25.39,4.33,1.18,6.23,2.38l-.45-2.93,4.21-.25.92,15.72-3.23.19Z"/>
          <path id="E" class="cls-1" d="m609.74,834.78c-.5-1.95-1.14-3.29-1.93-4.01-.79-.72-1.78-1.04-2.96-.95-1.19.08-2.61.39-4.27.9l-3.92,1.14,3.61,14.17c.31,1.23.57,2.31.79,3.25.21.94.35,1.71.41,2.33l11.69-3.12c1.76-.5,3.27-1.23,4.52-2.2,1.25-.97,2.1-2.31,2.53-4.02.44-1.71.33-3.86-.33-6.45l3-.76,3.11,13.94-35.44,9.01-.76-3c1.48-.47,2.47-1.06,2.99-1.78.52-.71.73-1.64.64-2.77-.1-1.14-.36-2.54-.78-4.23l-7.21-28.35c-.25-1-.48-1.97-.67-2.91-.19-.94-.35-1.76-.48-2.45-.76.24-1.59.5-2.49.78-.9.28-1.7.53-2.42.76l-.95-3.75,33.26-8.46,3.48,12.25-3,.76c-.66-2.59-1.58-4.46-2.77-5.61-1.19-1.15-2.51-1.78-3.96-1.89-1.46-.11-2.95.05-4.48.49l-4.74,1.35c-1.41.36-2.42.87-3.02,1.53-.61.66-.89,1.56-.84,2.68.04,1.13.3,2.6.76,4.41l2.72,10.7,11.24-2.86-1.9-5.76,3.75-.95,3.83,15.06-3,.76Z"/>
          <path id="X" class="cls-1" d="m634.93,846.31l-1.18-2.86c1.61-1.13,2.77-2.57,3.46-4.33.69-1.76,1.36-4.01,1.99-6.76l3.48-14.76c-4.07-2.47-7.43-4.52-10.08-6.14-2.65-1.62-4.93-2.97-6.85-4.05-1.26-.85-2.3-1.6-3.1-2.25-.8-.66-1.56-1.35-2.26-2.07-.59.3-1.16.56-1.73.79-.56.23-1.12.49-1.66.76l-1.48-3.57,17.8-7.37,1.18,2.86-2.12.95c-1.45.65-2.27,1.31-2.46,1.97-.18.66.02,1.3.6,1.92.59.62,1.33,1.23,2.24,1.81,1.34.92,3.03,1.99,5.07,3.23,2.03,1.24,4.18,2.56,6.43,3.96l2.34-10.71c.49-1.88.92-3.56,1.29-5.06.37-1.5.75-2.68,1.15-3.56-.81.38-1.68.8-2.61,1.23-.94.44-1.78.84-2.54,1.21l-1.48-3.57,13.45-5.57,1.18,2.86c-1.18.69-2.17,1.69-2.95,2.97-.79,1.29-1.44,2.75-1.95,4.39-.52,1.63-.98,3.35-1.41,5.15l-2.95,12.72c2.32,1.32,4.6,2.62,6.83,3.91,2.23,1.28,4.31,2.49,6.25,3.61,1.94,1.13,3.58,2.09,4.93,2.9,1.13.65,2.25,1.3,3.36,1.96,1.11.66,2.15,1.31,3.14,1.97.63-.31,1.21-.58,1.73-.79.52-.22,1.05-.46,1.6-.74l1.48,3.57-17.09,7.08-1.18-2.86c1.66-.64,2.66-1.3,2.98-1.99.32-.69.23-1.35-.29-1.97-.51-.62-1.2-1.19-2.07-1.69-1.61-.96-3.56-2.07-5.83-3.33-2.27-1.27-4.74-2.72-7.4-4.36-.43,1.9-.84,3.81-1.24,5.73-.4,1.92-.8,3.87-1.19,5.86-.34,1.51-.66,2.94-.97,4.28-.31,1.34-.69,2.69-1.14,4.05.8-.38,1.65-.79,2.54-1.21.89-.42,1.72-.81,2.48-1.18l1.48,3.57-13.25,5.49Z"/>
          <path id="P-2" data-name="P" class="cls-1" d="m682.4,822.29c1.28-.87,2.07-1.72,2.37-2.55.3-.83.24-1.78-.17-2.84-.41-1.06-1.06-2.34-1.94-3.83l-14.91-25.17c-.53-.89-1.01-1.76-1.46-2.61-.45-.85-.83-1.59-1.15-2.22-.66.45-1.38.93-2.17,1.45-.78.52-1.49.99-2.11,1.41l-1.97-3.33c2.36-1.45,4.76-2.91,7.21-4.39,2.45-1.48,4.94-2.97,7.48-4.47,3.79-2.25,7.28-3.7,10.46-4.36,3.18-.66,6.03-.49,8.55.49,2.52.99,4.62,2.86,6.31,5.62.97,1.55,1.65,3.34,2.04,5.37.39,2.03.28,4.19-.33,6.49-.6,2.29-1.88,4.62-3.84,6.97-1.95,2.36-4.81,4.65-8.56,6.87-.38.28-.82.57-1.33.87-.5.3-1.03.58-1.58.85l4.52,7.62c.65,1.09,1.21,2.07,1.71,2.95.49.88.86,1.61,1.09,2.18.54-.37,1.12-.77,1.74-1.2.62-.42,1.24-.83,1.85-1.22.61-.39,1.17-.76,1.67-1.11l2.01,3.39-15.91,9.43-1.58-2.66Zm1.01-22.58c.73-.32,1.36-.63,1.87-.91.52-.28,1.12-.62,1.8-1.03,2.26-1.34,4-2.94,5.24-4.82,1.23-1.87,1.85-3.9,1.87-6.09.01-2.19-.64-4.39-1.95-6.61-1.15-1.94-2.4-3.39-3.76-4.35-1.36-.96-2.78-1.51-4.25-1.65-1.47-.14-2.97.03-4.49.49-1.52.47-3.03,1.14-4.52,2.03-1.21.72-1.95,1.48-2.23,2.3-.28.82-.22,1.74.17,2.76.39,1.02,1.01,2.26,1.87,3.71l8.39,14.16Z"/>
          <path id="R-3" data-name="R" class="cls-1" d="m724.27,800.25l-1.93-2.42c1.15-1.04,1.82-1.99,2-2.85.18-.86,0-1.79-.56-2.79-.56-1-1.37-2.17-2.45-3.53l-18.23-22.87c-.64-.81-1.25-1.6-1.81-2.38-.56-.78-1.04-1.46-1.45-2.04-.59.53-1.24,1.11-1.95,1.73-.7.62-1.33,1.18-1.89,1.69l-2.41-3.02c2.21-1.82,4.44-3.64,6.7-5.47,2.26-1.83,4.56-3.65,6.9-5.45,3.45-2.75,6.6-4.62,9.46-5.61,2.86-.99,5.47-1.17,7.81-.52,2.34.65,4.43,2.16,6.27,4.54,1.21,1.44,2.07,3.13,2.6,5.07.53,1.95.52,4.07-.04,6.37-.56,2.31-1.89,4.77-3.99,7.41,1.08-.14,2.23-.07,3.43.24,1.2.3,2.49.68,3.87,1.14l7.47,2.49c1.57.54,2.96.97,4.16,1.27,1.2.3,2.33.37,3.4.21,1.07-.16,2.12-.65,3.14-1.47l1.93,2.42-7.64,6.09c-1.6-.05-3.11-.27-4.53-.66-1.42-.39-2.99-.87-4.69-1.43l-8.7-3.13c-1.06-.35-2.19-.74-3.4-1.16-1.2-.42-2.35-.67-3.44-.76-.59.47-1.16.93-1.73,1.38-.57.45-1.15.91-1.73,1.38l7.23,9.07c.79.99,1.49,1.89,2.1,2.69.61.8,1.07,1.47,1.37,2.01.41-.39.86-.79,1.34-1.2.48-.41.95-.83,1.42-1.27.47-.43.88-.79,1.25-1.08l2.41,3.02-13.69,10.91Zm-2.39-29.39c1.99-1.64,3.45-3.34,4.4-5.08.95-1.74,1.3-3.56,1.06-5.43-.24-1.88-1.16-3.83-2.77-5.84-1.2-1.5-2.43-2.59-3.68-3.27-1.26-.68-2.55-1.01-3.86-1.01-1.32,0-2.65.31-3.98.93-1.34.62-2.65,1.44-3.93,2.46-1.17.94-1.85,1.83-2.03,2.7-.18.86,0,1.78.52,2.74.53.96,1.31,2.1,2.37,3.42l8.59,10.78c.58-.4,1.14-.77,1.68-1.11.54-.34,1.09-.76,1.64-1.27Z"/>
          <path id="E-2" data-name="E" class="cls-1" d="m766.44,738.66c-1.46-1.39-2.72-2.17-3.77-2.36-1.05-.19-2.05.07-3.01.78-.96.71-2,1.72-3.13,3.04l-2.7,3.06,10.62,10.06c.92.87,1.72,1.65,2.4,2.32.68.68,1.21,1.26,1.59,1.75l8.22-8.88c1.22-1.36,2.1-2.78,2.65-4.27.54-1.49.54-3.07,0-4.75-.54-1.68-1.78-3.43-3.72-5.27l2.13-2.25,10.07,10.12-25.15,26.54-2.25-2.13c1-1.19,1.52-2.22,1.58-3.1.06-.88-.26-1.78-.94-2.69-.69-.91-1.66-1.96-2.92-3.15l-21.23-20.12c-.75-.71-1.46-1.41-2.12-2.11-.67-.69-1.24-1.3-1.72-1.82-.51.61-1.08,1.27-1.69,1.99-.61.71-1.16,1.36-1.64,1.93l-2.81-2.66,23.6-24.91,9.48,8.5-2.13,2.25c-1.94-1.84-3.72-2.93-5.34-3.26-1.62-.34-3.07-.16-4.36.52-1.29.68-2.47,1.62-3.53,2.81l-3.28,3.67c-1,1.06-1.58,2.02-1.74,2.91-.16.88.08,1.79.72,2.72.64.93,1.64,2.04,3,3.33l8.01,7.59,7.98-8.42-4.68-3.85,2.66-2.81,11.28,10.69-2.13,2.25Z"/>
          <path id="S-3" data-name="S" class="cls-1" d="m783.68,690.68c-2.07-1.21-4.18-1.98-6.31-2.31-2.13-.33-4.17-.13-6.12.6-1.95.73-3.66,2.16-5.13,4.27-1.54,2.13-2.17,4.24-1.9,6.35.27,2.11,1.24,3.76,2.91,4.97,1.48,1.07,3.03,1.56,4.64,1.45,1.61-.11,3.33-.58,5.16-1.43,1.83-.85,3.79-1.87,5.88-3.08,1.65-1,3.39-1.97,5.23-2.9,1.83-.93,3.67-1.65,5.52-2.17,1.85-.51,3.71-.64,5.58-.39,1.87.26,3.72,1.04,5.54,2.36,2.13,1.54,3.63,3.46,4.5,5.78.87,2.31,1.05,4.83.53,7.54-.52,2.72-1.83,5.52-3.92,8.41-1.18,1.63-2.67,3.17-4.47,4.62-1.8,1.45-3.69,2.58-5.67,3.4l2.6,1.45-2.52,3.47-12.7-8.84,1.98-2.73c3.52,2.09,6.88,2.71,10.07,1.86,3.19-.85,5.83-2.71,7.92-5.6,1.04-1.44,1.73-2.94,2.05-4.51.32-1.56.24-3.04-.26-4.44-.49-1.4-1.4-2.58-2.73-3.54-1.56-1.13-3.2-1.61-4.94-1.45-1.74.16-3.5.68-5.29,1.55-1.79.87-3.59,1.84-5.4,2.9-1.81,1.06-3.62,2.05-5.44,2.96-1.82.91-3.65,1.6-5.49,2.06-1.84.46-3.68.55-5.52.26-1.84-.29-3.68-1.1-5.5-2.42-1.06-.77-2.05-1.77-2.95-3-.9-1.23-1.55-2.69-1.96-4.37-.4-1.68-.37-3.55.11-5.61.48-2.06,1.58-4.28,3.31-6.67,1.04-1.44,2.43-2.91,4.15-4.42,1.72-1.5,3.65-2.61,5.79-3.32l-2.56-1.5,2.47-3.42,12.76,9.24-1.9,2.62Z"/>
          <path id="S-4" data-name="S" class="cls-1" d="m803.85,656.02c-2.21-.94-4.4-1.44-6.55-1.49-2.16-.06-4.16.4-6,1.38-1.84.97-3.35,2.6-4.55,4.89-1.26,2.31-1.62,4.48-1.08,6.54.54,2.05,1.71,3.57,3.52,4.56,1.61.88,3.2,1.16,4.78.85,1.58-.31,3.23-1,4.94-2.07,1.71-1.07,3.52-2.34,5.44-3.8,1.51-1.2,3.12-2.39,4.81-3.54,1.7-1.16,3.43-2.11,5.2-2.85,1.77-.74,3.6-1.11,5.48-1.09,1.89.02,3.82.56,5.79,1.64,2.31,1.26,4.04,2.98,5.2,5.16,1.16,2.18,1.65,4.65,1.48,7.42-.17,2.76-1.11,5.71-2.82,8.84-.97,1.77-2.25,3.49-3.85,5.15-1.6,1.66-3.33,3.03-5.2,4.09l2.76,1.11-2.05,3.77-13.72-7.16,1.62-2.96c3.76,1.62,7.17,1.81,10.22.57,3.05-1.24,5.43-3.43,7.14-6.56.85-1.56,1.34-3.14,1.46-4.73.12-1.59-.15-3.05-.82-4.37-.67-1.32-1.72-2.38-3.16-3.16-1.69-.92-3.38-1.19-5.08-.81-1.7.38-3.39,1.12-5.05,2.21-1.66,1.09-3.33,2.28-4.99,3.57-1.66,1.28-3.33,2.49-5.02,3.63-1.69,1.14-3.41,2.05-5.18,2.74-1.77.69-3.58,1.01-5.45.95-1.86-.06-3.79-.62-5.76-1.7-1.15-.63-2.25-1.5-3.31-2.6-1.05-1.11-1.88-2.47-2.5-4.09-.61-1.62-.81-3.47-.6-5.58.21-2.1,1.02-4.45,2.44-7.04.85-1.56,2.04-3.2,3.56-4.91,1.52-1.71,3.29-3.05,5.32-4.03l-2.73-1.17,2.02-3.7,13.83,7.54-1.55,2.84Z"/>
        </g>
      </g>
    </g>
  </g>
</svg>